<?xml version="1.0" encoding="iso-8859-1"?>
<!-- Uploaded to: SVG Repo, www.svgrepo.com, Generator: SVG Repo Mixer Tools -->
<svg height="800px" width="800px" version="1.1" id="Layer_1" xmlns="http://www.w3.org/2000/svg" xmlns:xlink="http://www.w3.org/1999/xlink" 
	 viewBox="0 0 512 512" xml:space="preserve">
<path style="fill:#36C8EB;" d="M411.62,201.146l-31.689,29.048c-1.678,1.538-2.92,3.491-3.601,5.663l-14.867,47.39
	c-0.273,0.871-0.454,1.77-0.539,2.679l-4.694,50.696c-0.184,1.981-0.821,3.892-1.863,5.586l-22.893,37.203l-26.739,42.266
	c-2.925,4.623-8.443,6.906-13.779,5.701l-14.829-3.348c-4.826-1.089-8.608-4.837-9.741-9.654l-14.235-60.5
	c-0.154-0.654-0.359-1.295-0.612-1.917l-22.057-54.141l-21.052-48.802c-0.908-2.105-1.24-4.413-0.963-6.689l3.193-26.189
	c0.831-6.817,6.847-11.796,13.7-11.339l63.857,4.257c0.279,0.018,0.559,0.046,0.837,0.084l62.134,8.224
	c4.255,0.563,8.512-1.021,11.364-4.23l3.533-3.975c6.928-7.794,2.256-20.163-8.095-21.431l-15.485-1.896
	c-5.885-0.721-10.527-5.351-11.262-11.233l-1.819-14.549c-0.617-4.938,1.653-9.792,5.84-12.484l2.283-1.468
	c8.502-5.466,7.731-18.133-1.371-22.527l-1.81-0.874c-4.292-2.072-9.376-1.616-13.23,1.187l-14.559,10.589
	c-1.073,0.78-2.259,1.39-3.517,1.81l-43.847,14.615c-2.104,0.702-4.354,0.85-6.533,0.431l-43.957-8.453
	c-3.658-0.704-7.442,0.205-10.383,2.492l-6.777,5.271c-4.196,3.264-9.962,3.628-14.534,0.918l-8.225-4.874
	c-6.377-3.779-8.28-12.134-4.167-18.301l9.647-14.472c2.029-3.042,5.25-5.084,8.866-5.62l13.9-2.059
	c4.872-0.722,8.911-4.148,10.418-8.837l4.201-13.07c1.536-4.778,5.697-8.236,10.676-8.872l37.274-4.758
	c1.653-0.211,3.25-0.739,4.703-1.556l1.712-0.963c10.248-5.765,8.11-21.105-3.323-23.85l0,0
	c-8.997-2.159-12.883-12.791-7.398-20.242l10.072-13.687c-3.118-0.117-6.242-0.196-9.385-0.196
	c-129.968,0-236.362,100.876-245.193,228.602c8.822,4.266,18.527,8.859,19.791,9.04c1.637,0.234,21.785,0.146,34.195,0.068
	c5.734-0.036,10.8,3.708,12.456,9.199l15.135,50.182c0.932,3.091,0.674,6.42-0.723,9.331l-21.01,43.773
	c-0.853,1.777-1.288,3.721-1.274,5.691c0.075,9.924,0.351,41.617,0.824,50.844c45.069,51.988,111.595,84.872,185.8,84.872
	c135.752,0,245.801-110.048,245.801-245.801c0-26.283-4.142-51.596-11.78-75.339l-72.68,17.443
	C415.208,198.615,413.238,199.663,411.62,201.146z"/>
<g>
	<path style="fill:#FFD500;" d="M265.381,10.395L255.31,24.082c-5.483,7.452-1.597,18.083,7.398,20.242l0,0
		c11.433,2.744,13.57,18.085,3.323,23.85l-1.712,0.963c-1.452,0.817-3.05,1.346-4.703,1.556l-37.274,4.758
		c-4.978,0.635-9.14,4.094-10.676,8.872l-4.201,13.07c-1.507,4.689-5.546,8.114-10.418,8.837l-13.9,2.059
		c-3.617,0.535-6.839,2.577-8.866,5.62l-9.647,14.472c-4.111,6.167-2.209,14.523,4.167,18.301l8.225,4.874
		c4.573,2.71,10.338,2.346,14.534-0.918l6.777-5.271c2.94-2.288,6.725-3.195,10.383-2.492l43.957,8.453
		c2.179,0.419,4.428,0.27,6.533-0.431l43.847-14.615c1.259-0.419,2.445-1.03,3.517-1.81l14.559-10.589
		c3.854-2.804,8.939-3.26,13.23-1.187l1.81,0.874c9.102,4.394,9.873,17.062,1.371,22.527l-2.283,1.468
		c-4.186,2.692-6.457,7.545-5.84,12.484l1.819,14.549c0.735,5.883,5.377,10.513,11.262,11.233l15.485,1.896
		c10.351,1.268,15.023,13.636,8.095,21.431l-3.533,3.975c-2.852,3.208-7.109,4.793-11.364,4.23l-62.134-8.224
		c-0.278-0.037-0.557-0.064-0.837-0.084l-63.857-4.257c-6.853-0.457-12.867,4.522-13.7,11.339l-3.193,26.189
		c-0.277,2.275,0.055,4.584,0.963,6.689l21.056,48.802l22.058,54.14c0.254,0.622,0.458,1.264,0.612,1.917l14.235,60.5
		c1.133,4.816,4.915,8.564,9.741,9.654l14.829,3.348c5.336,1.206,10.854-1.078,13.779-5.701l26.738-42.264l22.893-37.202
		c1.042-1.694,1.68-3.605,1.863-5.586l4.694-50.696c0.085-0.91,0.265-1.807,0.539-2.679l14.867-47.39
		c0.681-2.171,1.924-4.125,3.601-5.663l31.689-29.048c1.618-1.483,3.587-2.53,5.722-3.042l72.68-17.443
		C459.121,84.606,370.74,14.35,265.381,10.395z"/>
	<path style="fill:#FFD500;" d="M70.65,360.394l21.01-43.773c1.397-2.911,1.655-6.24,0.723-9.331l-15.135-50.182
		c-1.655-5.49-6.721-9.235-12.456-9.199c-12.409,0.078-32.558,0.165-34.195-0.068c-1.264-0.181-10.968-4.773-19.791-9.04
		c-0.393,5.683-0.608,11.416-0.608,17.199c0,61.546,22.621,117.809,60.002,160.929c-0.473-9.226-0.749-40.92-0.824-50.844
		C69.362,364.114,69.796,362.171,70.65,360.394z"/>
</g>
<g>
	<path style="fill:#3D3D3D;" d="M499.73,177.537c-15.962-49.618-46.354-92.716-87.893-124.633
		c-42.266-32.476-92.777-50.7-146.074-52.701h-0.001l0,0C262.073,0.064,258.971,0,256,0C190.743,0,128.594,24.562,81.002,69.162
		C33.639,113.546,5.097,173.54,0.632,238.094c0,0.001,0,0.001,0,0.001C0.213,244.164,0,250.187,0,256
		c0,61.597,22.194,121.122,62.495,167.61c0.003,0.004,0.007,0.007,0.011,0.011C111.202,479.788,181.726,512,256,512
		c68.381,0,132.667-26.628,181.019-74.981C485.372,388.667,512,324.381,512,256C512,229.244,507.871,202.846,499.73,177.537z
		 M476.689,173.371l-61.727,14.813c-3.806,0.914-7.345,2.795-10.234,5.442l-31.69,29.048c-2.997,2.747-5.223,6.249-6.439,10.128
		l-14.866,47.385c-0.489,1.551-0.812,3.165-0.963,4.797l-4.695,50.697c-0.039,0.416-0.175,0.824-0.395,1.18l-22.861,37.149
		l-26.705,42.21c-0.617,0.976-1.79,1.458-2.913,1.207l-14.83-3.349c-1.013-0.228-1.821-1.029-2.059-2.04l-14.233-60.491
		c-0.273-1.163-0.641-2.316-1.096-3.439l-22.058-54.14c-0.025-0.064-0.053-0.128-0.081-0.192l-21.052-48.804
		c-0.192-0.443-0.261-0.93-0.202-1.413l3.193-26.187c0.168-1.38,1.34-2.404,2.712-2.404c0.061,0,0.122,0.002,0.185,0.006
		l63.85,4.257c0.061,0.004,0.121,0.009,0.185,0.017l62.135,8.225c7.62,1.005,15.216-1.821,20.324-7.564l3.535-3.976
		c5.732-6.449,7.4-15.47,4.35-23.543c-3.049-8.073-10.263-13.739-18.83-14.788l-15.484-1.895c-1.246-0.152-2.227-1.129-2.382-2.375
		l-1.819-14.55c-0.13-1.037,0.355-2.074,1.233-2.639l2.285-1.468c7.14-4.591,11.097-12.39,10.581-20.865
		c-0.516-8.473-5.388-15.736-13.033-19.426l-1.812-0.875c-7.689-3.713-16.757-2.899-23.662,2.124l-14.558,10.589
		c-0.227,0.165-0.478,0.294-0.744,0.383l-43.846,14.615c-0.443,0.148-0.921,0.181-1.382,0.091l-43.959-8.453
		c-6.537-1.256-13.309,0.366-18.571,4.457l-6.778,5.272c-0.893,0.694-2.1,0.77-3.072,0.192l-8.224-4.872
		c-0.835-0.495-1.154-1.222-1.272-1.745c-0.119-0.523-0.149-1.317,0.391-2.126l9.647-14.471c0.428-0.642,1.112-1.075,1.876-1.188
		l13.898-2.059c8.778-1.299,15.918-7.356,18.635-15.804l4.201-13.07c0.322-1.006,1.21-1.742,2.257-1.876l37.274-4.758
		c2.971-0.379,5.801-1.317,8.409-2.783l1.717-0.964c8.351-4.698,12.892-13.865,11.57-23.354
		c-1.322-9.489-8.196-17.065-17.513-19.302c-1.179-0.283-1.701-1.092-1.931-1.722c-0.23-0.628-0.354-1.584,0.365-2.56l6.826-9.278
		C363.025,26.454,444.235,86.722,476.689,173.371z M20.411,254.646c6.489,2.967,7.477,3.111,8.744,3.291
		c1.109,0.158,2.631,0.374,35.704,0.171c0.006,0,0.012,0,0.018,0c1.211,0,2.256,0.779,2.608,1.944l15.135,50.181
		c0.197,0.656,0.144,1.356-0.153,1.975l-21.011,43.773c-1.516,3.16-2.303,6.679-2.276,10.181c0.036,4.712,0.098,11.954,0.187,19.62
		C34.08,347.483,20.398,302.383,20.398,256C20.398,255.552,20.408,255.096,20.411,254.646z M256,491.602
		c-67.179,0-131.029-28.636-175.752-78.694c-0.381-11.912-0.608-38.354-0.672-46.9c-0.003-0.417,0.088-0.822,0.269-1.2
		l21.011-43.772c2.505-5.219,2.964-11.147,1.293-16.69l-15.135-50.181c-2.926-9.707-12.017-16.453-22.137-16.453
		c-0.049,0-0.099,0-0.147,0c-22.442,0.14-29.766,0.073-32.15,0.017c-1.259-0.526-4.229-1.839-11.023-5.077
		C32.995,116.579,129.142,25.85,245.438,20.642c-3.185,5.807-3.749,12.725-1.438,19.047c2.668,7.299,8.772,12.739,16.329,14.553
		c1.499,0.36,1.953,1.439,2.07,2.282c0.117,0.842-0.024,2.006-1.366,2.76l-1.716,0.964c-0.309,0.173-0.644,0.284-0.995,0.328
		l-37.274,4.758c-8.864,1.132-16.359,7.361-19.094,15.869l-4.201,13.069c-0.32,0.998-1.165,1.714-2.202,1.868L181.652,98.2
		c-6.458,0.957-12.238,4.62-15.859,10.051l-9.648,14.471c-3.505,5.259-4.71,11.809-3.307,17.97
		c1.403,6.161,5.326,11.541,10.762,14.764l8.224,4.872c8.237,4.881,18.44,4.236,25.996-1.64l6.775-5.27
		c0.622-0.485,1.424-0.675,2.197-0.528l40.694,7.825l3.749,14.246c1.206,4.577,5.335,7.607,9.857,7.607
		c0.86,0,1.733-0.109,2.603-0.339c5.447-1.433,8.701-7.012,7.268-12.459l-2.913-11.069l38.233-12.744
		c2.252-0.751,4.368-1.84,6.291-3.237l14.56-10.59c0.816-0.593,1.888-0.69,2.795-0.252l1.811,0.875
		c1.193,0.575,1.497,1.567,1.542,2.297c0.044,0.729-0.138,1.75-1.25,2.466l-2.284,1.467c-7.443,4.784-11.542,13.55-10.445,22.329
		l1.819,14.549c1.317,10.538,9.599,18.801,20.143,20.092l15.484,1.895c1.357,0.166,1.96,1.042,2.227,1.749
		c0.266,0.705,0.394,1.761-0.514,2.782l-3.534,3.975c-0.604,0.679-1.509,1.005-2.402,0.895l-62.132-8.224
		c-0.495-0.065-0.992-0.114-1.5-0.149l-63.855-4.257c-12.266-0.814-23.016,8.09-24.503,20.282l-3.192,26.185
		c-0.497,4.067,0.099,8.206,1.722,11.965l21.011,48.708l22.014,54.034c0.056,0.136,0.1,0.272,0.133,0.414l14.235,60.5
		c2.013,8.553,8.852,15.329,17.422,17.265l14.829,3.348c1.689,0.381,3.389,0.567,5.074,0.567c7.814,0,15.277-3.977,19.571-10.763
		l26.739-42.264c0.021-0.036,0.045-0.071,0.066-0.107l22.892-37.201c1.855-3.014,3.008-6.469,3.334-9.993l4.695-50.692
		c0.018-0.196,0.056-0.387,0.113-0.571l14.867-47.39c0.145-0.459,0.407-0.873,0.761-1.198l31.688-29.046
		c0.342-0.314,0.76-0.535,1.212-0.645l63.297-15.192c5.695,20.508,8.582,41.713,8.582,63.173
		C491.602,385.911,385.911,491.602,256,491.602z"/>
	<path style="fill:#3D3D3D;" d="M378.806,372.871c-4.739-3.046-11.049-1.675-14.094,3.065l-18.359,28.558
		c-3.045,4.739-1.675,11.048,3.065,14.094c1.706,1.096,3.617,1.621,5.504,1.621c3.355,0,6.641-1.653,8.59-4.686l18.359-28.558
		C384.916,382.227,383.545,375.917,378.806,372.871z"/>
	<path style="fill:#3D3D3D;" d="M264.412,280.677c-2.145-5.209-8.103-7.692-13.315-5.547c-5.208,2.146-7.692,8.105-5.547,13.315
		l21.417,52.013c1.622,3.938,5.425,6.318,9.435,6.318c1.294,0,2.609-0.248,3.88-0.771c5.208-2.146,7.692-8.105,5.547-13.315
		L264.412,280.677z"/>
	<path style="fill:#3D3D3D;" d="M251.812,250.075l-1.68-4.08c-2.145-5.207-8.103-7.693-13.315-5.546
		c-5.208,2.145-7.691,8.105-5.546,13.315l1.68,4.08c1.622,3.937,5.424,6.317,9.434,6.317c1.294,0,2.61-0.248,3.881-0.772
		C251.475,261.246,253.957,255.285,251.812,250.075z"/>
</g>
</svg>